<svg width="18" height="18" viewBox="0 0 18 18" fill="none" xmlns="http://www.w3.org/2000/svg">
<g clip-path="url(#clip0_199_385)">
<path d="M17.8294 17.0207L13.1821 12.4477C14.3991 11.1255 15.1468 9.37682 15.1468 7.45261C15.1463 3.33639 11.7558 0 7.57324 0C3.39063 0 0.000213623 3.33639 0.000213623 7.45261C0.000213623 11.5688 3.39063 14.9052 7.57324 14.9052C9.38041 14.9052 11.0379 14.2802 12.3399 13.241L17.0052 17.832C17.2325 18.056 17.6016 18.056 17.8289 17.832C18.0567 17.6081 18.0567 17.2447 17.8294 17.0207ZM7.57324 13.7586C4.0343 13.7586 1.16543 10.9353 1.16543 7.45261C1.16543 3.96991 4.0343 1.14663 7.57324 1.14663C11.1122 1.14663 13.981 3.96991 13.981 7.45261C13.981 10.9353 11.1122 13.7586 7.57324 13.7586Z" fill="#959595"/>
</g>
<defs>
<clipPath id="clip0_199_385">
<rect width="18" height="18" fill="white"/>
</clipPath>
</defs>
</svg>
