<svg width="23" height="22" viewBox="0 0 23 22" fill="none" xmlns="http://www.w3.org/2000/svg">
<path d="M11.4835 19.6901C11.1439 19.6942 10.8069 19.6307 10.4922 19.5032C10.1774 19.3757 9.89117 19.1869 9.65018 18.9476L3.27935 12.5309C2.5215 11.7901 1.97051 10.8641 1.68107 9.84461C1.39164 8.82515 1.37381 7.74772 1.62935 6.71924C1.90038 5.72562 2.42206 4.81827 3.1444 4.08414C3.86675 3.35001 4.76554 2.81371 5.75464 2.52664C6.74374 2.23957 7.78999 2.21136 8.79313 2.4447C9.79626 2.67803 10.7227 3.16511 11.4835 3.85924C12.2444 3.16511 13.1708 2.67803 14.1739 2.4447C15.177 2.21136 16.2233 2.23957 17.2124 2.52664C18.2015 2.81371 19.1003 3.35001 19.8226 4.08414C20.545 4.81827 21.0667 5.72562 21.3377 6.71924C21.5984 7.75684 21.5805 8.84488 21.286 9.87339C20.9914 10.9019 20.4306 11.8344 19.6602 12.5767L13.2435 18.9934C12.7675 19.4422 12.1377 19.6915 11.4835 19.6901ZM7.42268 3.66674C6.43099 3.66674 5.46604 3.98838 4.67268 4.5834C3.83383 5.19884 3.22932 6.08136 2.95852 7.0859C2.76102 7.88869 2.77909 8.72941 3.01088 9.52297C3.24267 10.3165 3.67997 11.0348 4.27852 11.6051L10.6952 18.0217C10.9168 18.2423 11.2167 18.3661 11.5294 18.3661C11.842 18.3661 12.1419 18.2423 12.3635 18.0217L18.7802 11.6509C19.3713 11.0653 19.7965 10.3334 20.0123 9.52975C20.2281 8.72615 20.2268 7.87968 20.0085 7.07674C19.7382 6.07685 19.1373 5.19798 18.3035 4.5834C17.3562 3.89085 16.1835 3.57909 15.0173 3.70979C13.8511 3.8405 12.7765 4.40415 12.006 5.28924C11.9378 5.35853 11.8564 5.41355 11.7667 5.45111C11.677 5.48867 11.5808 5.50801 11.4835 5.50801C11.3863 5.50801 11.29 5.48867 11.2003 5.45111C11.1106 5.41355 11.0293 5.35853 10.961 5.28924C10.5228 4.78 9.97981 4.3714 9.36913 4.09137C8.75845 3.81134 8.09451 3.6665 7.42268 3.66674Z" fill="white"/>
</svg>
