<svg width="21" height="18" viewBox="0 0 21 18" fill="none" xmlns="http://www.w3.org/2000/svg">
<path d="M10.7485 17.6899C10.409 17.6941 10.0719 17.6306 9.75718 17.5031C9.44241 17.3756 9.15618 17.1867 8.9152 16.9474L2.54437 10.5308C1.78651 9.79001 1.23553 8.86395 0.946089 7.84449C0.656652 6.82503 0.638821 5.7476 0.894366 4.71911C1.16539 3.7255 1.68708 2.81815 2.40942 2.08402C3.13176 1.34989 4.03055 0.813589 5.01965 0.52652C6.00875 0.239451 7.05501 0.211234 8.05814 0.444573C9.06128 0.677913 9.98767 1.16499 10.7485 1.85911C11.5094 1.16499 12.4358 0.677913 13.4389 0.444573C14.4421 0.211234 15.4883 0.239451 16.4774 0.52652C17.4665 0.813589 18.3653 1.34989 19.0876 2.08402C19.81 2.81815 20.3317 3.7255 20.6027 4.71911C20.8634 5.75672 20.8456 6.84476 20.551 7.87327C20.2565 8.90178 19.6956 9.83431 18.9252 10.5766L12.5085 16.9933C12.0326 17.442 11.4027 17.6914 10.7485 17.6899ZM6.6877 1.66661C5.696 1.66661 4.73106 1.98826 3.9377 2.58328C3.09884 3.19871 2.49433 4.08124 2.22353 5.08578C2.02604 5.88857 2.0441 6.72928 2.27589 7.52285C2.50768 8.31642 2.94498 9.03467 3.54353 9.60495L9.9602 16.0216C10.1818 16.2422 10.4817 16.366 10.7944 16.366C11.107 16.366 11.4069 16.2422 11.6285 16.0216L18.0452 9.65078C18.6363 9.06518 19.0615 8.33323 19.2773 7.52963C19.4931 6.72603 19.4918 5.87955 19.2735 5.07661C19.0033 4.07672 18.4023 3.19786 17.5685 2.58328C16.6212 1.89073 15.4485 1.57897 14.2823 1.70967C13.1161 1.84038 12.0415 2.40403 11.271 3.28911C11.2028 3.3584 11.1215 3.41343 11.0318 3.45099C10.9421 3.48855 10.8458 3.50789 10.7485 3.50789C10.6513 3.50789 10.555 3.48855 10.4653 3.45099C10.3756 3.41343 10.2943 3.3584 10.226 3.28911C9.78783 2.77988 9.24483 2.37128 8.63415 2.09125C8.02347 1.81122 7.35952 1.66638 6.6877 1.66661Z" fill="#959595"/>
</svg>
