<svg width="24" height="24" viewBox="0 0 24 24" fill="none" xmlns="http://www.w3.org/2000/svg">
<g clip-path="url(#clip0_5_654)">
<path d="M1.95579 5.49072C2.71905 5.49072 3.88213 5.49072 4.53636 5.49072C4.86348 5.49072 5.1179 5.7088 5.22694 5.99957C5.55405 6.94457 6.28098 9.0163 7.11694 10.4338C8.24367 12.2875 8.97059 12.978 9.44309 12.9053C9.91559 12.7963 9.77021 11.5605 9.77021 10.5792C9.77021 9.59784 9.87925 7.92592 9.40675 7.16265L8.67982 6.10861C8.49809 5.85418 8.67982 5.52707 8.97059 5.52707H13.1141C13.5139 5.52707 13.841 5.85418 13.841 6.25399V11.5242C13.841 11.5242 14.0227 12.4692 15.0404 11.4878C16.0581 10.5065 17.1485 8.68918 18.0571 6.83553L18.4206 5.96322C18.5296 5.7088 18.7841 5.52707 19.0748 5.52707H21.7644C22.2733 5.52707 22.6367 6.03592 22.455 6.50842L22.1642 7.27168C22.1642 7.27168 21.1829 9.23438 20.1652 10.6155C19.1475 12.033 18.9294 12.3601 19.0748 12.7236C19.2202 13.0871 21.8371 15.5223 22.4914 16.6853C22.6731 17.0125 22.8185 17.3032 22.9639 17.5576C23.2183 18.0301 22.8548 18.648 22.3096 18.648H19.2566C19.0021 18.648 18.7477 18.5026 18.6387 18.2846L18.3479 17.8121C18.3479 17.8121 16.4942 15.6313 15.3675 14.9407C14.2044 14.2865 14.2408 15.2315 14.2408 15.2315V17.1578C14.2408 17.9575 13.5866 18.6117 12.7869 18.6117H12.06C12.06 18.6117 8.06194 18.6117 4.86348 13.8503C2.35559 10.143 1.51963 7.74418 1.22886 6.36303C1.15617 5.92688 1.48329 5.49072 1.95579 5.49072Z" fill="#5181B8"/>
</g>
<defs>
<clipPath id="clip0_5_654">
<rect width="23.2615" height="23.2615" fill="white" transform="translate(0.501953 0.438477)"/>
</clipPath>
</defs>
</svg>
